<svg width="20" height="18" viewBox="0 0 20 18" fill="none" xmlns="http://www.w3.org/2000/svg">
<path d="M18.992 3.00798H17.052V1.06558C17.052 0.734376 16.7832 0.465576 16.452 0.465576C16.1208 0.465576 15.852 0.734376 15.852 1.06558V3.00798H13.912C13.5808 3.00798 13.312 3.27598 13.312 3.60798C13.312 3.93998 13.5808 4.20798 13.912 4.20798H15.8528V6.14718C15.8528 6.47838 16.1216 6.74718 16.4528 6.74718C16.784 6.74718 17.0528 6.47838 17.0528 6.14718V4.20798H18.9928C19.3248 4.20798 19.5928 3.93838 19.5928 3.60798C19.5928 3.27758 19.324 3.00798 18.9928 3.00798H18.992ZM14.008 9.09278C14.024 7.14558 13.3824 5.41518 12.2016 4.22078C11.1424 3.14718 9.7088 2.55358 8.1648 2.54638H8.1544C6.6104 2.55438 5.1768 3.14638 4.1176 4.21998C2.9376 5.41598 2.296 7.14638 2.312 9.09358C2.3408 12.4 0.7736 13.648 0.712 13.696C0.504 13.8504 0.4184 14.12 0.4992 14.3664C0.5808 14.6128 0.8112 14.7784 1.0688 14.7784H4.8416C4.9296 16.5592 6.3936 17.984 8.1968 17.984C10 17.984 11.4632 16.56 11.552 14.7784H15.252C15.508 14.7784 15.7352 14.6136 15.8176 14.3704C15.9 14.1272 15.8176 13.856 15.6136 13.7C15.548 13.6488 13.9792 12.4 14.0072 9.09198L14.008 9.09278ZM8.196 16.784C7.0552 16.784 6.1272 15.896 6.0408 14.7776H10.3512C10.2648 15.8976 9.3368 16.7832 8.196 16.7832V16.784ZM2.364 13.5784C2.9256 12.7024 3.5296 11.2552 3.5112 9.08398C3.4976 7.43438 4.0024 6.04398 4.9712 5.06398C5.8056 4.21918 6.9376 3.75198 8.16 3.74718C9.3816 3.75278 10.5144 4.21918 11.348 5.06398C12.316 6.04478 12.82 7.43438 12.8064 9.08398C12.7888 11.2552 13.392 12.7024 13.956 13.5784H2.364Z" fill="#FF6600"/>
</svg>
