<svg width="17" height="21" viewBox="0 0 17 21" fill="none" xmlns="http://www.w3.org/2000/svg">
<path d="M8.225 10.1649C6.869 10.1649 5.35299 10.0149 4.38499 8.90891C3.57099 7.97891 3.30799 6.54091 3.57999 4.51691C3.95999 1.69091 5.69599 0.00390625 8.22599 0.00390625C10.756 0.00390625 12.493 1.69091 12.872 4.51691C13.144 6.54091 12.88 7.97691 12.066 8.90891C11.096 10.0149 9.58099 10.1639 8.22599 10.1639L8.225 10.1649ZM14.074 20.0149H2.37599C1.71299 20.0149 1.12599 19.7349 0.725995 19.2289C0.303995 18.6949 0.149995 17.9589 0.315995 17.2609C1.14999 13.7309 4.40199 11.2639 8.22399 11.2639C12.046 11.2639 15.298 13.7299 16.134 17.2609C16.298 17.9589 16.144 18.6949 15.722 19.2279C15.322 19.7329 14.737 20.0129 14.074 20.0129V20.0149Z" fill="#FF6600"/>
</svg>
