<svg width="16" height="16" viewBox="0 0 16 16" fill="none" xmlns="http://www.w3.org/2000/svg">
<path d="M13.8 0.814209H2.2C0.9864 0.814209 0 1.80141 0 3.01581V13.0118C0 14.2262 0.9864 15.2142 2.2 15.2142H13.8C15.0136 15.2142 16 14.2262 16 13.0118V3.01581C16 1.80141 15.0136 0.814209 13.8 0.814209ZM2.2 2.01421H13.8C14.352 2.01421 14.8 2.46221 14.8 3.01421V3.58541L8.36 7.87901C8.1416 8.02301 7.8592 8.02461 7.64 7.87741L1.2 3.58541V3.01421C1.2 2.46221 1.648 2.01421 2.2 2.01421ZM13.8 14.0126H2.2C1.648 14.0126 1.2 13.5646 1.2 13.0126V4.99181L6.992 8.85581C7.2984 9.06061 7.6496 9.16301 8 9.16301C8.352 9.16301 8.7016 9.06061 9.008 8.85661L14.8 4.99261V13.0102C14.8 13.5622 14.352 14.0102 13.8 14.0102V14.0126Z" fill="#FF6600"/>
</svg>
